<svg xmlns="http://www.w3.org/2000/svg" viewBox="0 0 512 512">
  <defs><linearGradient id="gold" x1="0" y1="0" x2="0" y2="1">
  <stop offset="0" stop-color="#ffd83d"/><stop offset="0.55" stop-color="#f0bf1a"/><stop offset="1" stop-color="#d99a12"/>
</linearGradient></defs>
  <rect width="512" height="512" rx="96" fill="#0d0d0f"/>
  <rect x="40" y="40" width="432" height="432" rx="76" fill="none" stroke="#e6b800" stroke-width="6" opacity="0.55"/>
  <path d="M76.90 330.57L76.90 318.27L77.73 318.27Q89.30 318.27 95.68 308.91Q102.06 299.54 102.06 282.56L102.06 282.56L102.06 202.61L120.78 202.61L120.78 284.21Q120.78 298.90 115.92 309.28Q111.05 319.65 101.83 325.11Q92.60 330.57 79.57 330.57L79.57 330.57L76.90 330.57ZM76.81 363.71L76.81 318.27L95.54 318.27L95.54 363.71L76.81 363.71ZM76.81 336.08L76.81 318.27L192.57 318.27L192.57 336.08L76.81 336.08ZM182.20 363.71L182.20 318.27L200.92 318.27L200.92 363.71L182.20 363.71ZM164.29 336.08L164.29 202.61L183.02 202.61L183.02 336.08L164.29 336.08ZM113.71 220.42L113.71 202.61L174.21 202.61L174.21 220.42L113.71 220.42ZM269.40 337.46Q255.54 337.46 245.03 331.31Q234.52 325.16 228.74 313.87Q222.95 302.57 222.95 287.70L222.95 287.70L222.95 251.08Q222.95 236.21 228.74 224.91Q234.52 213.62 245.03 207.43Q255.54 201.23 269.40 201.23L269.40 201.23Q280.88 201.23 290.52 206.14Q300.15 211.05 306.63 220.05Q313.10 229.04 315.39 240.89L315.39 240.89L315.39 240.89L296.21 240.89L296.21 240.89Q294.46 234.64 290.38 229.73Q286.29 224.82 280.79 222.16Q275.28 219.50 269.40 219.50L269.40 219.50Q261.23 219.50 255.08 223.45Q248.93 227.39 245.54 234.51Q242.14 241.62 242.14 251.08L242.14 251.08L242.14 287.70Q242.14 297.07 245.54 304.23Q248.93 311.39 255.08 315.29Q261.23 319.19 269.40 319.19L269.40 319.19Q275.37 319.19 280.83 316.71Q286.29 314.23 290.38 309.37Q294.46 304.50 296.21 297.80L296.21 297.80L296.21 297.80L315.39 297.80L315.39 297.80Q313.10 309.64 306.58 318.64Q300.06 327.63 290.42 332.55Q280.79 337.46 269.40 337.46L269.40 337.46ZM349.82 284.31L349.82 266.50L392.50 266.50Q398.56 266.50 403.15 263.65Q407.74 260.81 410.26 255.57Q412.79 250.34 412.79 243.55L412.79 243.55L412.79 243.55Q412.79 236.66 410.26 231.43Q407.74 226.20 403.15 223.31Q398.56 220.42 392.50 220.42L392.50 220.42L349.82 220.42L349.82 202.61L391.86 202.61Q403.79 202.61 412.88 207.70Q421.97 212.80 426.97 222.07Q431.97 231.34 431.97 243.55L431.97 243.55L431.97 243.55Q431.97 255.76 426.97 264.98Q421.97 274.21 412.88 279.26Q403.79 284.31 391.86 284.31L391.86 284.31L349.82 284.31ZM340.18 336.08L340.18 202.61L358.90 202.61L358.90 336.08L340.18 336.08Z" fill="url(#gold)"/>
</svg>